<?xml version="1.0" encoding="UTF-8" standalone="no"?>
<svg
fill="#F2EDE4"
   width="19.979"
   height="19.979"
   viewBox="-2 -2 19.979 19.979"
   preserveAspectRatio="xMinYMin"
   class="jam jam-github"
   version="1.1"
   id="svg4"
   sodipodi:docname="github-svgrepo-com.svg"
   inkscape:version="1.2 (dc2aedaf03, 2022-05-15)"
   xmlns:inkscape="http://www.inkscape.org/namespaces/inkscape"
   xmlns:sodipodi="http://sodipodi.sourceforge.net/DTD/sodipodi-0.dtd"
   xmlns="http://www.w3.org/2000/svg"
   xmlns:svg="http://www.w3.org/2000/svg">
  <defs
     id="defs8" />
  <sodipodi:namedview
     id="namedview6"
     pagecolor="#ffffff"
     bordercolor="#000000"
     borderopacity="0.25"
     inkscape:showpageshadow="2"
     inkscape:pageopacity="0.0"
     inkscape:pagecheckerboard="0"
     inkscape:deskcolor="#d1d1d1"
     showgrid="false"
     inkscape:zoom="36.541667"
     inkscape:cx="9.9885975"
     inkscape:cy="10.015964"
     inkscape:window-width="1680"
     inkscape:window-height="1027"
     inkscape:window-x="1912"
     inkscape:window-y="22"
     inkscape:window-maximized="1"
     inkscape:current-layer="svg4" />
  <path
     d="M 16.88,-0.901 C 16.147,-1.634 15.265,-2 14.233,-2 H 1.746 C 0.714,-2 -0.168,-1.634 -0.901,-0.901 -1.634,-0.168 -2,0.714 -2,1.746 v 12.487 c 0,1.032 0.366,1.914 1.099,2.647 0.733,0.733 1.615,1.099 2.647,1.099 H 4.66 c 0.19,0 0.333,-0.007 0.429,-0.02 A 0.504,0.504 0 0 0 5.375,17.79 C 5.47,17.69 5.518,17.545 5.518,17.355 L 5.511,16.47 C 5.507,15.906 5.505,15.46 5.505,15.13 l -0.3,0.052 c -0.19,0.035 -0.43,0.05 -0.721,0.046 A 5.555,5.555 0 0 1 3.58,15.137 2.026,2.026 0 0 1 2.708,14.747 1.651,1.651 0 0 1 2.136,13.947 l -0.13,-0.3 A 3.25,3.25 0 0 0 1.596,12.984 C 1.41,12.741 1.221,12.577 1.03,12.49 L 0.94,12.425 A 0.956,0.956 0 0 1 0.77,12.269 0.723,0.723 0 0 1 0.653,12.087 c -0.026,-0.061 -0.004,-0.111 0.065,-0.15 0.07,-0.04 0.195,-0.059 0.378,-0.059 l 0.26,0.04 c 0.173,0.034 0.388,0.138 0.643,0.311 a 2.1,2.1 0 0 1 0.631,0.677 c 0.2,0.355 0.44,0.626 0.722,0.813 0.282,0.186 0.566,0.28 0.852,0.28 0.286,0 0.533,-0.022 0.742,-0.065 a 2.59,2.59 0 0 0 0.585,-0.196 c 0.078,-0.58 0.29,-1.028 0.637,-1.34 A 8.907,8.907 0 0 1 4.835,12.164 5.314,5.314 0 0 1 3.612,11.657 3.5,3.5 0 0 1 2.565,10.785 C 2.288,10.438 2.06,9.983 1.882,9.42 1.705,8.856 1.616,8.205 1.616,7.468 1.616,6.419 1.958,5.526 2.643,4.788 2.323,4 2.353,3.115 2.734,2.136 2.986,2.057 3.359,2.116 3.853,2.311 c 0.494,0.195 0.856,0.362 1.086,0.5 0.23,0.14 0.414,0.257 0.553,0.352 A 9.233,9.233 0 0 1 7.989,2.825 c 0.859,0 1.691,0.113 2.498,0.338 l 0.494,-0.312 a 6.997,6.997 0 0 1 1.197,-0.572 c 0.46,-0.174 0.81,-0.221 1.054,-0.143 0.39,0.98 0.424,1.864 0.103,2.653 0.685,0.737 1.028,1.63 1.028,2.68 0,0.737 -0.089,1.39 -0.267,1.957 -0.177,0.568 -0.407,1.023 -0.689,1.366 -0.282,0.343 -0.633,0.63 -1.053,0.865 -0.42,0.234 -0.828,0.403 -1.223,0.507 a 8.9,8.9 0 0 1 -1.333,0.235 c 0.45,0.39 0.676,1.005 0.676,1.846 v 3.11 c 0,0.147 0.021,0.266 0.065,0.357 a 0.36,0.36 0 0 0 0.208,0.189 c 0.096,0.034 0.18,0.056 0.254,0.064 0.074,0.01 0.18,0.013 0.318,0.013 h 2.914 c 1.032,0 1.914,-0.366 2.647,-1.099 0.732,-0.732 1.099,-1.615 1.099,-2.647 V 1.746 c 0,-1.032 -0.367,-1.914 -1.1,-2.647 z"
     id="path2" />
</svg>
